<svg xmlns="http://www.w3.org/2000/svg" viewBox="0 0 1200 360" role="img" aria-labelledby="title desc">
  <title id="title">Flow.io Logo Minimal Variant</title>
  <desc id="desc">Minimal Flow.io logo with monoline drop and wave.</desc>

  <rect width="1200" height="360" fill="#FFFFFF"/>

  <g transform="translate(80,56)">
    <circle cx="126" cy="124" r="112" fill="none" stroke="#DCEAF6" stroke-width="4"/>
    <path d="M126 30
             C126 30, 66 98, 66 150
             C66 198, 96 220, 126 220
             C156 220, 186 198, 186 150
             C186 98, 126 30, 126 30 Z"
          fill="none" stroke="#0F8FD8" stroke-width="10" stroke-linecap="round" stroke-linejoin="round"/>
    <path d="M86 152 C102 142, 116 142, 132 148 C148 154, 164 154, 180 146"
          fill="none" stroke="#16B9E8" stroke-width="9" stroke-linecap="round"/>
    <path d="M90 178 C106 170, 122 170, 138 176 C154 182, 168 182, 182 176"
          fill="none" stroke="#16B9E8" stroke-width="7" stroke-linecap="round"/>
  </g>

  <g transform="translate(330,100)">
    <text x="0" y="98" fill="#0A3A5E" font-family="Avenir Next, Montserrat, Segoe UI, Arial, sans-serif" font-size="126" font-weight="800" letter-spacing="2">FLOW</text>
    <text x="418" y="98" fill="#16B9E8" font-family="Avenir Next, Montserrat, Segoe UI, Arial, sans-serif" font-size="126" font-weight="800">.</text>
    <text x="468" y="98" fill="#0A3A5E" font-family="Avenir Next, Montserrat, Segoe UI, Arial, sans-serif" font-size="126" font-weight="800">IO</text>
    <text x="2" y="142" fill="#5C7D95" font-family="Avenir Next, Montserrat, Segoe UI, Arial, sans-serif" font-size="34" font-weight="500" letter-spacing="4">POOL WATER AUTOMATION</text>
  </g>
</svg>
