<svg width="1200" height="760" viewBox="0 0 1200 760" xmlns="http://www.w3.org/2000/svg" role="img" aria-label="Flow.io alarm tiles mockup">
  <defs>
    <style>
      .title { font: 700 28px 'Segoe UI', Roboto, Arial, sans-serif; fill: #1f1f1f; }
      .subtitle { font: 400 14px 'Segoe UI', Roboto, Arial, sans-serif; fill: #4a4a4a; }
      .name { font: 700 13px 'Segoe UI', Roboto, Arial, sans-serif; fill: #1f1f1f; }
      .sev { font: 600 12px 'Segoe UI', Roboto, Arial, sans-serif; fill: #1f1f1f; }
      .flag { font: 600 10px 'Segoe UI', Roboto, Arial, sans-serif; fill: #2b2b2b; }
      .legend { font: 500 12px 'Segoe UI', Roboto, Arial, sans-serif; fill: #333; }
    </style>
    <filter id="softShadow" x="-20%" y="-20%" width="140%" height="140%">
      <feDropShadow dx="0" dy="2" stdDeviation="3" flood-color="#000" flood-opacity="0.10"/>
    </filter>
  </defs>

  <rect x="0" y="0" width="1200" height="760" fill="#f6f7f9"/>

  <text x="48" y="58" class="title">Flow.io - Alarm Slots (MD3 compact cards)</text>
  <text x="48" y="86" class="subtitle">Tap sur une tuile = acknowledge. A: active, C: condition, K: acknowledged.</text>

  <!-- Grid settings: card 220x150, gap 24 -->
  <!-- Row 1 -->
  <g transform="translate(48,130)" filter="url(#softShadow)">
    <rect width="220" height="150" rx="18" fill="#dcecff" stroke="#d0d7e3"/>
    <text x="16" y="28" class="name">A1 - PSI Low</text>
    <text x="16" y="52" class="sev">Info</text>
    <circle cx="26" cy="112" r="6" fill="#d32f2f"/><text x="38" y="116" class="flag">A</text>
    <circle cx="88" cy="112" r="6" fill="#f57c00"/><text x="100" y="116" class="flag">C</text>
    <circle cx="150" cy="112" r="6" fill="#9aa0a6"/><text x="162" y="116" class="flag">K</text>
  </g>

  <g transform="translate(292,130)" filter="url(#softShadow)">
    <rect width="220" height="150" rx="18" fill="#ffe8c2" stroke="#e7d1aa"/>
    <text x="16" y="28" class="name">A2 - PSI High</text>
    <text x="16" y="52" class="sev">Warning</text>
    <circle cx="26" cy="112" r="6" fill="#d32f2f"/><text x="38" y="116" class="flag">A</text>
    <circle cx="88" cy="112" r="6" fill="#f57c00"/><text x="100" y="116" class="flag">C</text>
    <circle cx="150" cy="112" r="6" fill="#2e7d32"/><text x="162" y="116" class="flag">K</text>
  </g>

  <g transform="translate(536,130)" filter="url(#softShadow)">
    <rect width="220" height="150" rx="18" fill="#ffd9d6" stroke="#e6bcbc"/>
    <text x="16" y="28" class="name">A3 - Log Error</text>
    <text x="16" y="52" class="sev">Alarm</text>
    <circle cx="26" cy="112" r="6" fill="#d32f2f"/><text x="38" y="116" class="flag">A</text>
    <circle cx="88" cy="112" r="6" fill="#9aa0a6"/><text x="100" y="116" class="flag">C</text>
    <circle cx="150" cy="112" r="6" fill="#9aa0a6"/><text x="162" y="116" class="flag">K</text>
  </g>

  <g transform="translate(780,130)" filter="url(#softShadow)">
    <rect width="220" height="150" rx="18" fill="#ffc9c2" stroke="#e1afa8"/>
    <text x="16" y="28" class="name">A4 - Overpressure</text>
    <text x="16" y="52" class="sev">Critical</text>
    <circle cx="26" cy="112" r="6" fill="#d32f2f"/><text x="38" y="116" class="flag">A</text>
    <circle cx="88" cy="112" r="6" fill="#f57c00"/><text x="100" y="116" class="flag">C</text>
    <circle cx="150" cy="112" r="6" fill="#9aa0a6"/><text x="162" y="116" class="flag">K</text>
  </g>

  <!-- Row 2 -->
  <g transform="translate(48,304)" filter="url(#softShadow)">
    <rect width="220" height="150" rx="18" fill="#eceff3" stroke="#d8dde6"/>
    <text x="16" y="28" class="name">A5 - Flow Lost</text>
    <text x="16" y="52" class="sev">Info</text>
    <circle cx="26" cy="112" r="6" fill="#9aa0a6"/><text x="38" y="116" class="flag">A</text>
    <circle cx="88" cy="112" r="6" fill="#9aa0a6"/><text x="100" y="116" class="flag">C</text>
    <circle cx="150" cy="112" r="6" fill="#9aa0a6"/><text x="162" y="116" class="flag">K</text>
  </g>

  <g transform="translate(292,304)" filter="url(#softShadow)">
    <rect width="220" height="150" rx="18" fill="#eceff3" stroke="#d8dde6"/>
    <text x="16" y="28" class="name">A6 - pH Pump Overtime</text>
    <text x="16" y="52" class="sev">Warning</text>
    <circle cx="26" cy="112" r="6" fill="#9aa0a6"/><text x="38" y="116" class="flag">A</text>
    <circle cx="88" cy="112" r="6" fill="#9aa0a6"/><text x="100" y="116" class="flag">C</text>
    <circle cx="150" cy="112" r="6" fill="#2e7d32"/><text x="162" y="116" class="flag">K</text>
  </g>

  <g transform="translate(536,304)" filter="url(#softShadow)">
    <rect width="220" height="150" rx="18" fill="#eceff3" stroke="#d8dde6"/>
    <text x="16" y="28" class="name">A7 - ORP Pump Overtime</text>
    <text x="16" y="52" class="sev">Alarm</text>
    <circle cx="26" cy="112" r="6" fill="#9aa0a6"/><text x="38" y="116" class="flag">A</text>
    <circle cx="88" cy="112" r="6" fill="#9aa0a6"/><text x="100" y="116" class="flag">C</text>
    <circle cx="150" cy="112" r="6" fill="#9aa0a6"/><text x="162" y="116" class="flag">K</text>
  </g>

  <g transform="translate(780,304)" filter="url(#softShadow)">
    <rect width="220" height="150" rx="18" fill="#eceff3" stroke="#d8dde6"/>
    <text x="16" y="28" class="name">A8 - Sensor Fault</text>
    <text x="16" y="52" class="sev">Critical</text>
    <circle cx="26" cy="112" r="6" fill="#9aa0a6"/><text x="38" y="116" class="flag">A</text>
    <circle cx="88" cy="112" r="6" fill="#9aa0a6"/><text x="100" y="116" class="flag">C</text>
    <circle cx="150" cy="112" r="6" fill="#9aa0a6"/><text x="162" y="116" class="flag">K</text>
  </g>

  <!-- Footer legend -->
  <rect x="48" y="502" width="952" height="190" rx="16" fill="#ffffff" stroke="#d8dde6"/>
  <text x="72" y="540" class="legend">Légende couleurs gravité :</text>
  <rect x="72" y="556" width="24" height="16" rx="4" fill="#dcecff"/><text x="106" y="569" class="legend">Info</text>
  <rect x="186" y="556" width="24" height="16" rx="4" fill="#ffe8c2"/><text x="220" y="569" class="legend">Warning</text>
  <rect x="320" y="556" width="24" height="16" rx="4" fill="#ffd9d6"/><text x="354" y="569" class="legend">Alarm</text>
  <rect x="434" y="556" width="24" height="16" rx="4" fill="#ffc9c2"/><text x="468" y="569" class="legend">Critical</text>

  <text x="72" y="610" class="legend">Interaction :</text>
  <text x="160" y="610" class="legend">Tap = acknowledge (alarms.ack), Hold = détails.</text>
  <text x="72" y="644" class="legend">Comportement conseillé :</text>
  <text x="250" y="644" class="legend">si active=false, fond neutre; sinon fond tonal selon severity.</text>
</svg>
